<?xml version="1.0" encoding="UTF-8"?>
<svg id="logo" xmlns="http://www.w3.org/2000/svg" viewBox="0 0 1970.57 1903.4" fill="#fcdd6b">

  <path id="A"  d="M1086.39,1256.11c-2.28-1.87-10.82-6.34-13.73-7.28-20.8-6.68-113.08-5.44-138.64-3.44-18.28,1.43-30.5,5.25-41.78,20.19-26.16,34.63-46.68,88.62-71.48,126.42-10.93,16.66-18.83,27.33-40.51,29.46-41.59,4.08-130.19,3.75-172.08-.02-13.74-1.23-22.82-6.03-32.89-15.09-38.55-49-95.26-92.49-132.99-140.89-10.4-13.34-16.83-28.88-9.54-45.55,161.34-282.15,322.69-565.08,489.36-844.03,8.52-6.89,17.31-10.52,28.24-11.74,18.67-2.08,90.8-2.5,105.78,3.65,6.83,2.81,15.23,10.35,19.77,16.22l478.57,826.82c15.29,34.51,1.16,46.32-20.61,70.63-38.88,43.42-82.35,83.17-120.95,126.94l-27.01,12.97c-40.34,3.89-118.73,5.07-173.99.07-8.33-.75-17.26-3.13-24.3-7.68-23-14.89-69.65-115.95-90.94-144.95-1.8-2.46-8.66-11.38-10.27-12.71ZM706.55,1256.81c35.98-43.88,61.65-102.66,96.64-146.24,9.93-12.37,18.05-19.43,34.86-21.11l327.05.96c12.01,3.04,21.06,12.01,28.7,21.28,32.69,39.64,58.52,97.38,91.48,136.41,39.16,46.37,105.38-7.62,78.35-56.35-113.31-192.14-220.73-388.28-337.52-578.05-17.2-15.1-38.14-12.97-56.41-1.29l-338.24,580.32c-24.39,42.42,36.43,97.43,75.09,64.08Z"/>
  <path id="arm2" d="M1868.2,1237.94c10.81-1.44,22.13,1.85,31.15,7.85,11.3,7.53,61.64,56.3,66.8,67.14,6.97,14.64,5.2,27.01-1.82,41.16-113.43,117.45-224.57,238.02-339.48,354.2-35.44,35.83-58.68,74.72-112.93,74.99-133.66.67-300.01-7.81-445.63.18-50.3,6.43-68.63,55.61-107.36,82.55-152.45,106.02-354.01-28.98-316.73-210.77,28.1-137.06,187.55-203.25,306.73-130.76,40.31,24.52,60.37,71.26,109.37,78.54l423.07-.22,28.87-11.12c115.69-109.8,221.96-229.89,335.42-342.27,5.59-5.22,14.96-10.47,22.54-11.48ZM895.39,1698.57c0-29.72-24.1-53.82-53.82-53.82s-53.82,24.1-53.82,53.82,24.1,53.82,53.82,53.82,53.82-24.1,53.82-53.82Z"/>
  <path id="arm3" d="M580.84,174.58c228.66-12.88,300.9,297.2,100.78,388.63-53.81,24.59-103.67,6.87-141.16,60.75-100.06,189.51-227.77,372.36-325.39,562.2-22.93,44.59-24.96,76.06,8.4,116.21,81.08,97.6,183.65,189.18,268.84,284.91,18.59,20.88,41.57,40.26,27.35,71.38-5.1,11.16-65.08,66.86-76.78,71.16-30.3,11.12-46.71-10.5-65.6-29.51-121.74-122.53-233.33-255.94-354.82-378.85-19.75-23.44-27.06-51.52-19.58-81.59,129.81-244.02,279.62-477.79,409.87-721.61,10.13-42.97-18.18-78.97-21.38-121.43-8.57-113.49,74.57-215.78,189.47-222.25ZM648.64,378.01c0-29.67-24.05-53.72-53.72-53.72s-53.72,24.05-53.72,53.72,24.05,53.72,53.72,53.72,53.72-24.05,53.72-53.72Z"/>
  <path id="arm1" d="M792.61.53l423.43-.53c44.31,3.75,60.13,30.67,81.73,64.21,142.98,222.05,267.44,456.65,411.06,678.44,30.36,35.45,59.18,28.26,99.45,38.49,140.06,35.56,198.32,205.97,110.33,321.34-123.14,161.45-380.51,62.63-365.85-141.94,2.44-34.08,23.44-68.3,24.09-97.98.82-37.59-45.13-100.94-65.17-134.66-108.65-182.79-219.66-365.05-332.91-544.68-14.87-12.84-32.96-22.63-52.8-23.17-83.17-2.27-204.49,2.48-315.91.05-19.77-.43-44.14-11.88-48.43-33.54-2.52-12.76-1.9-85.81,1.44-97.59,3.85-13.57,16.77-23.78,29.55-28.42ZM1809.89,978.56c0-29.61-24.01-53.62-53.62-53.62s-53.62,24-53.62,53.62,24.01,53.62,53.62,53.62,53.62-24,53.62-53.62Z"/>
</svg>